<svg enable-background="new 0 0 36 36" height="512" viewBox="0 0 36 36" width="512" xmlns="http://www.w3.org/2000/svg">
  <g id="BG"><g>
      <path d="m8.377 4.167c6.917 0 11.667-3.583 15-3.583s10.333 1.916 10.333 17.249-9.417 17.583-13.083 17.583c-17.167.001-24.5-31.249-12.25-31.249z" fill="#efefef"/>
    </g></g>
  <g id="effect">
    <g><g>
        <path d="m19.875 3.562h2v1h-2z" fill="#a4afc1"/>
      </g><g>
        <path d="m14.125 3.562h2v1h-2z" fill="#a4afc1"/></g><g>
      <path d="m17.625.062h1v2h-1z" fill="#a4afc1"/></g></g><g>
    <path d="m6.75 29.91c-.827 0-1.5-.673-1.5-1.5s.673-1.5 1.5-1.5 1.5.673 1.5 1.5-.673 1.5-1.5 1.5zm0-2c-.275 0-.5.224-.5.5s.225.5.5.5.5-.224.5-.5-.225-.5-.5-.5z" fill="#a4afc1"/></g></g><g id="color"><g>
  <circle cx="18" cy="18" fill="#f3f3f1" r="11.25"/></g><g>
  <path d="m18 26.2c-1.243 0-2.25-1.007-2.25-2.25v-.9c0-1.243 1.007-2.25 2.25-2.25 1.243 0 2.25 1.007 2.25 2.25v.9c0 1.243-1.007 2.25-2.25 2.25z" fill="#d5dbe1"/></g><g>
  <path d="m22.25 28.41v.003c1.098-.449 2.108-1.064 3-1.818v-.005-12.84h-3z" fill="#d5dbe1"/></g><g>
  <path d="m10.75 26.59v.006c.892.753 1.902 1.369 3 1.818v-.004-14.66h-3z" fill="#d5dbe1"/></g></g><g id="shadow"><g>
  <path d="m9 18c0-5.833 4.44-10.629 10.125-11.193-.37-.037-.745-.057-1.125-.057-6.213 0-11.25 5.037-11.25 11.25s5.037 11.25 11.25 11.25c.38 0 .755-.02 1.125-.057-5.685-.564-10.125-5.36-10.125-11.193z" fill="#d5dbe1"/></g><g>
  <path d="m18 23.95v-.9c0-.831.455-1.548 1.125-1.938-.332-.193-.713-.312-1.125-.312-1.243 0-2.25 1.007-2.25 2.25v.9c0 1.243 1.007 2.25 2.25 2.25.412 0 .793-.119 1.125-.312-.67-.39-1.125-1.107-1.125-1.938z" fill="#9090A9"/></g></g><g id="regular"><g>
  <path d="m18 30c-6.617 0-12-5.383-12-12s5.383-12 12-12 12 5.383 12 12-5.383 12-12 12zm0-22.5c-5.79 0-10.5 4.71-10.5 10.5s4.71 10.5 10.5 10.5 10.5-4.71 10.5-10.5-4.71-10.5-10.5-10.5z"/></g><g>
  <path d="m9.75 13h5.5v1.5h-5.5z"/></g><g>
  <path d="m10 13.75h1.5v12.84h-1.5z"/></g><g>
  <path d="m13 13.75h1.5v14.66h-1.5z"/></g><g>
  <path d="m20.75 13h5.5v1.5h-5.5z"/></g><g>
  <path d="m24.5 13.75h1.5v12.84h-1.5z"/></g><g>
  <path d="m21.5 13.75h1.5v14.66h-1.5z"/></g><g>
  <path d="m18 26.95c-1.654 0-3-1.346-3-3v-.9c0-1.654 1.346-3 3-3s3 1.346 3 3v.9c0 1.654-1.346 3-3 3zm0-5.4c-.827 0-1.5.673-1.5 1.5v.9c0 .827.673 1.5 1.5 1.5s1.5-.673 1.5-1.5v-.9c0-.827-.673-1.5-1.5-1.5z"/>
</g>d5dbe1
</g>
</svg>
